# xmcd
#
# Track frame offsets:
#	150
#	18600
#	34177
#	44942
#	75539
#	91594
#	111611
#	125981
#	141248
#	170530
#	185520
#
# Disc length: 2889 seconds
#
# Revision: 1
# Processed by: cddbd v1.5.2PL0 Copyright (c) Steve Scherf et al.
# Submitted via: audiograbber 1.83.01
#
DISCID=a10b470b
DTITLE=The New Hokum Sheiks - Live in Tousson
DYEAR=2008
DGENRE=Blues
TTITLE0=Keep your hands off
TTITLE1=Black, Brown And White
TTITLE2=Mississippi Mud
TTITLE3=Can't Be Satisfied
TTITLE4=Goodbye, Goobye, Goodbye
TTITLE5=New Minglewood Blues
TTITLE6=Wait On The Morning
TTITLE7=One Scotch, One Bourbon, One Beer
TTITLE8=Caldonia
TTITLE9=Blues My Naughty Sweetie Gives To Me
TTITLE10=Mystery Train
EXTD=
EXTT0=
EXTT1=
EXTT2=
EXTT3=
EXTT4=
EXTT5=
EXTT6=
EXTT7=
EXTT8=
EXTT9=
EXTT10=
PLAYORDER=
